<mxfile host="Electron" modified="2023-06-23T16:24:53.654Z" agent="Mozilla/5.0 (Windows NT 10.0; Win64; x64) AppleWebKit/537.36 (KHTML, like Gecko) draw.io/21.5.0 Chrome/112.0.5615.204 Electron/24.5.1 Safari/537.36" etag="OtfVjXKHVoWKK5KPYkSl" version="21.5.0" type="device">
  <diagram name="Page-1" id="7oLeeqB4X83rpsUO6XK-">
    <mxGraphModel dx="1845" dy="2395" grid="0" gridSize="10" guides="1" tooltips="1" connect="1" arrows="1" fold="1" page="1" pageScale="1" pageWidth="827" pageHeight="1169" math="0" shadow="0">
      <root>
        <mxCell id="0" />
        <mxCell id="1" parent="0" />
        <mxCell id="lFIIQ00Y4gTMDogE_Xks-12" style="edgeStyle=none;curved=1;rounded=0;orthogonalLoop=1;jettySize=auto;html=1;entryX=0.5;entryY=0;entryDx=0;entryDy=0;entryPerimeter=0;fontSize=12;startSize=8;endSize=8;" parent="1" source="Cari82qWPhB8FJyJu9n--68" edge="1">
          <mxGeometry relative="1" as="geometry">
            <mxPoint x="-754.5" y="-1004" as="targetPoint" />
          </mxGeometry>
        </mxCell>
        <UserObject label="&lt;div style=&quot;font-size: 1px&quot;&gt;&lt;font style=&quot;font-size: 11.29px; direction: ltr; letter-spacing: 0px; line-height: 120%; opacity: 1;&quot;&gt;Start&lt;br&gt;&lt;/font&gt;&lt;/div&gt;" Function="EN_DIO_Error_T DIO_init(uint8_t pinNumber, EN_DIO_PORT_T portNumber, EN_DIO_DIRECTION_T direction);" tags="Flowchart" id="Cari82qWPhB8FJyJu9n--68">
          <mxCell style="verticalAlign=middle;align=center;overflow=width;vsdxID=30;fillColor=#dae8fc;shape=stencil(tVLREoIgEPwaHnEQxsl3s/9gEpSJwDko7e+DsEkze2l627vdu5uFRaxyHe8FosR5sCcxqMZ3iO0Rpcp0ApQPCLEasUpaEC3Yi2lS3fOojOhsr3HDmObyMtsVcYqS29Qh5FEfklwrM5OXeUa/yjkcAwfr7TDpiyTfXvjkMR+Vw2A998qaBac5tAKHU1hq3i4oNwjRr9ofvayt/+Rk+yX/4iWA159KpXWKxJx/z0Bopfyw+g4=);strokeColor=#6c8ebf;spacingTop=-1;spacingBottom=-1;spacingLeft=-1;spacingRight=-1;points=[[0.5,1,0],[0.5,0,0],[0,0.5,0],[1,0.5,0]];labelBackgroundColor=none;rounded=1;html=1;whiteSpace=wrap;fontFamily=Calibri;" parent="1" vertex="1">
            <mxGeometry x="-805" y="-1077" width="101" height="38" as="geometry" />
          </mxCell>
        </UserObject>
        <mxCell id="MiLEQ-yQkrviwAs_aEzq-80" value="app_init" style="text;html=1;strokeColor=none;fillColor=none;align=center;verticalAlign=middle;whiteSpace=wrap;rounded=0;fontSize=16;fontFamily=Calibri;" parent="1" vertex="1">
          <mxGeometry x="-819" y="-1137" width="138" height="30" as="geometry" />
        </mxCell>
        <mxCell id="VFEfzSZ_7FpAjkqAnIdG-19" style="edgeStyle=orthogonalEdgeStyle;rounded=0;orthogonalLoop=1;jettySize=auto;html=1;entryX=0.5;entryY=0;entryDx=0;entryDy=0;entryPerimeter=0;" edge="1" parent="1" source="Cari82qWPhB8FJyJu9n--73" target="lFIIQ00Y4gTMDogE_Xks-105">
          <mxGeometry relative="1" as="geometry" />
        </mxCell>
        <UserObject label="&lt;div style=&quot;font-size: 1px&quot;&gt;&lt;font style=&quot;font-size: 11.29px; direction: ltr; letter-spacing: 0px; line-height: 120%; opacity: 1;&quot;&gt;Start&lt;br&gt;&lt;/font&gt;&lt;/div&gt;" Function="EN_DIO_Error_T DIO_write(uint8_t pinNumber, EN_DIO_PORT_T portNumber, uint8_t value); " tags="Flowchart" id="Cari82qWPhB8FJyJu9n--73">
          <mxCell style="verticalAlign=middle;align=center;overflow=width;vsdxID=152;fillColor=#dae8fc;shape=stencil(tVLREoIgEPwaHnEQxsl3s/9gEpSJwDko7e+DsEkze2l627vdu5uFRaxyHe8FosR5sCcxqMZ3iO0Rpcp0ApQPCLEasUpaEC3Yi2lS3fOojOhsr3HDmObyMtsVcYqS29Qh5FEfklwrM5OXeUa/yjkcAwfr7TDpiyTfXvjkMR+Vw2A998qaBac5tAKHU1hq3i4oNwjRr9ofvayt/+Rk+yX/4iWA159KpXWKxJx/z0Bopfyw+g4=);strokeColor=#6c8ebf;spacingTop=-1;spacingBottom=-1;spacingLeft=-1;spacingRight=-1;points=[[0.5,1,0],[0.5,0,0],[0,0.5,0],[1,0.5,0]];labelBackgroundColor=none;rounded=1;html=1;whiteSpace=wrap;fontFamily=Calibri;" parent="1" vertex="1">
            <mxGeometry x="223.56" y="-1090" width="86.75" height="35" as="geometry" />
          </mxCell>
        </UserObject>
        <UserObject label="&lt;div style=&quot;font-size: 1px&quot;&gt;&lt;font style=&quot;font-size: 11.29px; direction: ltr; letter-spacing: 0px; line-height: 120%; opacity: 1;&quot;&gt;Return `&lt;i style=&quot;font-weight: bold;&quot;&gt;retval&lt;/i&gt;`&lt;br&gt;&lt;/font&gt;&lt;/div&gt;" Function="EN_DIO_Error_T DIO_init(uint8_t pinNumber, EN_DIO_PORT_T portNumber, EN_DIO_DIRECTION_T direction);" tags="Flowchart" id="lFIIQ00Y4gTMDogE_Xks-2">
          <mxCell style="verticalAlign=middle;align=center;overflow=width;vsdxID=30;fillColor=#dae8fc;shape=stencil(tVLREoIgEPwaHnEQxsl3s/9gEpSJwDko7e+DsEkze2l627vdu5uFRaxyHe8FosR5sCcxqMZ3iO0Rpcp0ApQPCLEasUpaEC3Yi2lS3fOojOhsr3HDmObyMtsVcYqS29Qh5FEfklwrM5OXeUa/yjkcAwfr7TDpiyTfXvjkMR+Vw2A998qaBac5tAKHU1hq3i4oNwjRr9ofvayt/+Rk+yX/4iWA159KpXWKxJx/z0Bopfyw+g4=);strokeColor=#6c8ebf;spacingTop=-1;spacingBottom=-1;spacingLeft=-1;spacingRight=-1;points=[[0.5,1,0],[0.5,0,0],[0,0.5,0],[1,0.5,0]];labelBackgroundColor=none;rounded=1;html=1;whiteSpace=wrap;fontFamily=Calibri;" parent="1" vertex="1">
            <mxGeometry x="-805.5" y="-728" width="101" height="38" as="geometry" />
          </mxCell>
        </UserObject>
        <mxCell id="VFEfzSZ_7FpAjkqAnIdG-20" style="edgeStyle=orthogonalEdgeStyle;rounded=0;orthogonalLoop=1;jettySize=auto;html=1;entryX=0.5;entryY=0;entryDx=0;entryDy=0;entryPerimeter=0;" edge="1" parent="1" source="lFIIQ00Y4gTMDogE_Xks-105" target="VFEfzSZ_7FpAjkqAnIdG-13">
          <mxGeometry relative="1" as="geometry" />
        </mxCell>
        <UserObject label="&lt;div style=&quot;font-size: 1px&quot;&gt;&lt;font style=&quot;font-size: 11.29px; direction: ltr; letter-spacing: 0px; line-height: 120%; opacity: 1;&quot;&gt;call pwm_stop()&lt;/font&gt;&lt;/div&gt;" Function="EN_DIO_Error_T DIO_port_write(EN_DIO_PORT_T portNumber, uint8_t byte, uint8_t mask)" tags="Flowchart" id="lFIIQ00Y4gTMDogE_Xks-105">
          <mxCell style="verticalAlign=middle;align=center;overflow=width;vsdxID=309;fillColor=#d5e8d4;shape=stencil(nZBLDoAgDERP0z3SIyjew0SURgSD+Lu9kMZoXLhwN9O+tukAlrNpJg1SzDH4QW/URgNYgZTkjA4UkwJUgGXng+6DX1zLfmoymdXo17xh5zmRJ6Q42BWCfc2oJfdAr+Yv+AP9Cb7OJ3H/2JG1HNGz/84klThPVCc=);strokeColor=#82b366;spacingTop=-1;spacingBottom=-1;spacingLeft=-1;spacingRight=-1;points=[[0,0.5,0],[1,0.5,0],[0.5,1,0],[0.5,0,0]];labelBackgroundColor=none;rounded=1;html=1;whiteSpace=wrap;fontFamily=Calibri;" parent="1" vertex="1">
            <mxGeometry x="216.44" y="-1033" width="101" height="27.3" as="geometry" />
          </mxCell>
        </UserObject>
        <mxCell id="2uxIIXQYkivUfwEPlcb4-50" value="" style="edgeStyle=orthogonalEdgeStyle;rounded=0;orthogonalLoop=1;jettySize=auto;html=1;" parent="1" edge="1">
          <mxGeometry relative="1" as="geometry">
            <mxPoint x="-737.5" y="-851.975" as="sourcePoint" />
            <mxPoint x="-596" y="-851.85" as="targetPoint" />
            <Array as="points">
              <mxPoint x="-638" y="-852" />
              <mxPoint x="-638" y="-852" />
            </Array>
          </mxGeometry>
        </mxCell>
        <mxCell id="2uxIIXQYkivUfwEPlcb4-53" style="edgeStyle=orthogonalEdgeStyle;rounded=0;orthogonalLoop=1;jettySize=auto;html=1;entryX=0.5;entryY=0;entryDx=0;entryDy=0;entryPerimeter=0;" parent="1" source="3IBphvjYudPTPOBFQOcQ-1" target="VOM82OgJhgnwIrokfdzb-215" edge="1">
          <mxGeometry relative="1" as="geometry">
            <mxPoint x="-755" y="-794" as="targetPoint" />
          </mxGeometry>
        </mxCell>
        <UserObject label="&lt;div style=&quot;&quot;&gt;&lt;span style=&quot;font-size: 11.29px;&quot;&gt;Initialize Button&lt;/span&gt;&lt;/div&gt;" Function="EN_DIO_Error_T DIO_toggle(uint8_t pinNumber, EN_DIO_PORT_T portNumber);  " tags="Flowchart" id="3IBphvjYudPTPOBFQOcQ-1">
          <mxCell style="verticalAlign=middle;align=center;overflow=width;vsdxID=274;fillColor=#d5e8d4;shape=stencil(nZBLDoAgDERP0z3SIyjew0SURgSD+Lu9kMZoXLhwN9O+tukAlrNpJg1SzDH4QW/URgNYgZTkjA4UkwJUgGXng+6DX1zLfmoymdXo17xh5zmRJ6Q42BWCfc2oJfdAr+Yv+AP9Cb7OJ3H/2JG1HNGz/84klThPVCc=);strokeColor=#82b366;spacingTop=-1;spacingBottom=-1;spacingLeft=-1;spacingRight=-1;points=[[0,0.5,0],[1,0.5,0],[0.5,1,0],[0.5,0,0]];labelBackgroundColor=none;rounded=1;html=1;whiteSpace=wrap;fontFamily=Calibri;" parent="1" vertex="1">
            <mxGeometry x="-803.5" y="-869.48" width="98" height="30.65" as="geometry" />
          </mxCell>
        </UserObject>
        <mxCell id="2uxIIXQYkivUfwEPlcb4-4" value="app_next_state" style="text;html=1;strokeColor=none;fillColor=none;align=center;verticalAlign=middle;whiteSpace=wrap;rounded=0;fontSize=16;fontColor=#000000;fontFamily=Calibri;" parent="1" vertex="1">
          <mxGeometry x="181.94" y="-1149" width="170" height="30" as="geometry" />
        </mxCell>
        <mxCell id="2uxIIXQYkivUfwEPlcb4-56" style="edgeStyle=orthogonalEdgeStyle;rounded=0;orthogonalLoop=1;jettySize=auto;html=1;entryX=0.5;entryY=0;entryDx=0;entryDy=0;entryPerimeter=0;" parent="1" source="2uxIIXQYkivUfwEPlcb4-45" target="3IBphvjYudPTPOBFQOcQ-1" edge="1">
          <mxGeometry relative="1" as="geometry" />
        </mxCell>
        <mxCell id="VFEfzSZ_7FpAjkqAnIdG-7" style="edgeStyle=orthogonalEdgeStyle;rounded=0;orthogonalLoop=1;jettySize=auto;html=1;entryX=1;entryY=0.5;entryDx=0;entryDy=0;entryPerimeter=0;exitX=1;exitY=0.5;exitDx=0;exitDy=0;exitPerimeter=0;" edge="1" parent="1" source="2uxIIXQYkivUfwEPlcb4-45" target="lFIIQ00Y4gTMDogE_Xks-2">
          <mxGeometry relative="1" as="geometry">
            <Array as="points">
              <mxPoint x="-594" y="-923" />
              <mxPoint x="-594" y="-709" />
            </Array>
          </mxGeometry>
        </mxCell>
        <UserObject label="&lt;div style=&quot;&quot;&gt;Initialize RGB Led&lt;br&gt;&lt;/div&gt;" Function="EN_DIO_Error_T DIO_toggle(uint8_t pinNumber, EN_DIO_PORT_T portNumber);  " tags="Flowchart" id="2uxIIXQYkivUfwEPlcb4-45">
          <mxCell style="verticalAlign=middle;align=center;overflow=width;vsdxID=274;fillColor=#d5e8d4;shape=stencil(nZBLDoAgDERP0z3SIyjew0SURgSD+Lu9kMZoXLhwN9O+tukAlrNpJg1SzDH4QW/URgNYgZTkjA4UkwJUgGXng+6DX1zLfmoymdXo17xh5zmRJ6Q42BWCfc2oJfdAr+Yv+AP9Cb7OJ3H/2JG1HNGz/84klThPVCc=);strokeColor=#82b366;spacingTop=-1;spacingBottom=-1;spacingLeft=-1;spacingRight=-1;points=[[0,0.5,0],[1,0.5,0],[0.5,1,0],[0.5,0,0]];labelBackgroundColor=none;rounded=1;html=1;whiteSpace=wrap;fontFamily=Calibri;" parent="1" vertex="1">
            <mxGeometry x="-803.5" y="-938.4899999999999" width="98" height="30.65" as="geometry" />
          </mxCell>
        </UserObject>
        <mxCell id="2uxIIXQYkivUfwEPlcb4-58" style="edgeStyle=orthogonalEdgeStyle;rounded=0;orthogonalLoop=1;jettySize=auto;html=1;entryX=0.5;entryY=0;entryDx=0;entryDy=0;entryPerimeter=0;" parent="1" source="2uxIIXQYkivUfwEPlcb4-46" target="2uxIIXQYkivUfwEPlcb4-45" edge="1">
          <mxGeometry relative="1" as="geometry" />
        </mxCell>
        <UserObject label="&lt;div style=&quot;&quot;&gt;set `&lt;i style=&quot;font-weight: bold;&quot;&gt;retval&lt;/i&gt;` = APP_OK&lt;br&gt;&lt;/div&gt;" Function="EN_DIO_Error_T DIO_toggle(uint8_t pinNumber, EN_DIO_PORT_T portNumber);  " tags="Flowchart" id="2uxIIXQYkivUfwEPlcb4-46">
          <mxCell style="verticalAlign=middle;align=center;overflow=width;vsdxID=274;fillColor=#d5e8d4;shape=stencil(nZBLDoAgDERP0z3SIyjew0SURgSD+Lu9kMZoXLhwN9O+tukAlrNpJg1SzDH4QW/URgNYgZTkjA4UkwJUgGXng+6DX1zLfmoymdXo17xh5zmRJ6Q42BWCfc2oJfdAr+Yv+AP9Cb7OJ3H/2JG1HNGz/84klThPVCc=);strokeColor=#82b366;spacingTop=-1;spacingBottom=-1;spacingLeft=-1;spacingRight=-1;points=[[0,0.5,0],[1,0.5,0],[0.5,1,0],[0.5,0,0]];labelBackgroundColor=none;rounded=1;html=1;whiteSpace=wrap;fontFamily=Calibri;" parent="1" vertex="1">
            <mxGeometry x="-814" y="-1004.96" width="119" height="30.65" as="geometry" />
          </mxCell>
        </UserObject>
        <mxCell id="2uxIIXQYkivUfwEPlcb4-47" value="OK" style="text;html=1;strokeColor=none;fillColor=none;align=center;verticalAlign=middle;whiteSpace=wrap;rounded=0;fontSize=12;fontFamily=Calibri;" parent="1" vertex="1">
          <mxGeometry x="-803.5" y="-826.48" width="39" height="16" as="geometry" />
        </mxCell>
        <mxCell id="2uxIIXQYkivUfwEPlcb4-48" value="Failed" style="text;html=1;strokeColor=none;fillColor=none;align=center;verticalAlign=middle;whiteSpace=wrap;rounded=0;fontSize=12;fontFamily=Calibri;" parent="1" vertex="1">
          <mxGeometry x="-695" y="-954.4899999999999" width="39" height="16" as="geometry" />
        </mxCell>
        <mxCell id="2uxIIXQYkivUfwEPlcb4-52" value="Failed" style="text;html=1;strokeColor=none;fillColor=none;align=center;verticalAlign=middle;whiteSpace=wrap;rounded=0;fontSize=12;fontFamily=Calibri;" parent="1" vertex="1">
          <mxGeometry x="-701" y="-875.8399999999999" width="39" height="16" as="geometry" />
        </mxCell>
        <mxCell id="2uxIIXQYkivUfwEPlcb4-54" value="OK" style="text;html=1;strokeColor=none;fillColor=none;align=center;verticalAlign=middle;whiteSpace=wrap;rounded=0;fontSize=12;fontFamily=Calibri;" parent="1" vertex="1">
          <mxGeometry x="-800.5" y="-898" width="39" height="16" as="geometry" />
        </mxCell>
        <mxCell id="_9m3csE_K2MhUG1u3_6k-1" value="app_start" style="text;html=1;strokeColor=none;fillColor=none;align=center;verticalAlign=middle;whiteSpace=wrap;rounded=0;fontSize=16;fontColor=#000000;fontFamily=Calibri;" parent="1" vertex="1">
          <mxGeometry x="-408.69" y="-1157" width="151" height="30" as="geometry" />
        </mxCell>
        <mxCell id="VOM82OgJhgnwIrokfdzb-145" style="edgeStyle=orthogonalEdgeStyle;rounded=0;orthogonalLoop=1;jettySize=auto;html=1;entryX=0.5;entryY=0;entryDx=0;entryDy=0;" parent="1" source="VOM82OgJhgnwIrokfdzb-146" target="VOM82OgJhgnwIrokfdzb-149" edge="1">
          <mxGeometry relative="1" as="geometry">
            <mxPoint x="-411.5000000000002" y="-1041" as="targetPoint" />
          </mxGeometry>
        </mxCell>
        <UserObject label="&lt;div style=&quot;font-size: 1px&quot;&gt;&lt;font style=&quot;font-size: 11.29px; direction: ltr; letter-spacing: 0px; line-height: 120%; opacity: 1;&quot;&gt;Start&lt;br&gt;&lt;/font&gt;&lt;/div&gt;" Function="EN_DIO_Error_T DIO_write(uint8_t pinNumber, EN_DIO_PORT_T portNumber, uint8_t value); " tags="Flowchart" id="VOM82OgJhgnwIrokfdzb-146">
          <mxCell style="verticalAlign=middle;align=center;overflow=width;vsdxID=152;fillColor=#dae8fc;shape=stencil(tVLREoIgEPwaHnEQxsl3s/9gEpSJwDko7e+DsEkze2l627vdu5uFRaxyHe8FosR5sCcxqMZ3iO0Rpcp0ApQPCLEasUpaEC3Yi2lS3fOojOhsr3HDmObyMtsVcYqS29Qh5FEfklwrM5OXeUa/yjkcAwfr7TDpiyTfXvjkMR+Vw2A998qaBac5tAKHU1hq3i4oNwjRr9ofvayt/+Rk+yX/4iWA159KpXWKxJx/z0Bopfyw+g4=);strokeColor=#6c8ebf;spacingTop=-1;spacingBottom=-1;spacingLeft=-1;spacingRight=-1;points=[[0.5,1,0],[0.5,0,0],[0,0.5,0],[1,0.5,0]];labelBackgroundColor=none;rounded=1;html=1;whiteSpace=wrap;fontFamily=Calibri;" parent="1" vertex="1">
            <mxGeometry x="-454.87617554858934" y="-1077" width="86.75235109717869" height="38" as="geometry" />
          </mxCell>
        </UserObject>
        <mxCell id="VOM82OgJhgnwIrokfdzb-147" value="" style="edgeStyle=orthogonalEdgeStyle;rounded=0;orthogonalLoop=1;jettySize=auto;html=1;" parent="1" source="VOM82OgJhgnwIrokfdzb-149" target="VOM82OgJhgnwIrokfdzb-154" edge="1">
          <mxGeometry relative="1" as="geometry" />
        </mxCell>
        <mxCell id="VOM82OgJhgnwIrokfdzb-148" value="" style="edgeStyle=orthogonalEdgeStyle;rounded=0;orthogonalLoop=1;jettySize=auto;html=1;" parent="1" source="VOM82OgJhgnwIrokfdzb-149" target="VOM82OgJhgnwIrokfdzb-161" edge="1">
          <mxGeometry relative="1" as="geometry" />
        </mxCell>
        <mxCell id="VOM82OgJhgnwIrokfdzb-149" value="`&lt;b&gt;&lt;i&gt;SW1&lt;/i&gt;&lt;/b&gt;` is&lt;br&gt;pressed?" style="rhombus;whiteSpace=wrap;html=1;fontSize=12;fontFamily=Calibri;fillColor=#fff2cc;strokeColor=#d6b656;" parent="1" vertex="1">
          <mxGeometry x="-451.5" y="-1000.3299999999999" width="80" height="80" as="geometry" />
        </mxCell>
        <mxCell id="VOM82OgJhgnwIrokfdzb-150" value="True" style="text;html=1;strokeColor=none;fillColor=none;align=center;verticalAlign=middle;whiteSpace=wrap;rounded=0;fontSize=12;fontFamily=Calibri;" parent="1" vertex="1">
          <mxGeometry x="-361" y="-990.8299999999999" width="39" height="16" as="geometry" />
        </mxCell>
        <mxCell id="VOM82OgJhgnwIrokfdzb-151" value="False" style="text;html=1;strokeColor=none;fillColor=none;align=center;verticalAlign=middle;whiteSpace=wrap;rounded=0;fontSize=12;fontFamily=Calibri;" parent="1" vertex="1">
          <mxGeometry x="-464" y="-893.3299999999999" width="39" height="16" as="geometry" />
        </mxCell>
        <mxCell id="VOM82OgJhgnwIrokfdzb-152" value="" style="edgeStyle=orthogonalEdgeStyle;rounded=0;orthogonalLoop=1;jettySize=auto;html=1;" parent="1" source="VOM82OgJhgnwIrokfdzb-154" target="VOM82OgJhgnwIrokfdzb-156" edge="1">
          <mxGeometry relative="1" as="geometry" />
        </mxCell>
        <mxCell id="VOM82OgJhgnwIrokfdzb-153" style="edgeStyle=orthogonalEdgeStyle;rounded=0;orthogonalLoop=1;jettySize=auto;html=1;entryX=0;entryY=0.5;entryDx=0;entryDy=0;entryPerimeter=0;exitX=0.5;exitY=1;exitDx=0;exitDy=0;" parent="1" source="VOM82OgJhgnwIrokfdzb-154" target="VOM82OgJhgnwIrokfdzb-158" edge="1">
          <mxGeometry relative="1" as="geometry">
            <mxPoint x="-243.14285714285734" y="-878.8538095238094" as="targetPoint" />
          </mxGeometry>
        </mxCell>
        <mxCell id="VOM82OgJhgnwIrokfdzb-154" value="`&lt;b&gt;&lt;i&gt;app_sub_&lt;br&gt;state&lt;/i&gt;&lt;/b&gt;` is&lt;br&gt;DUTY_3" style="rhombus;whiteSpace=wrap;html=1;fontSize=12;fontFamily=Calibri;fillColor=#fff2cc;strokeColor=#d6b656;" parent="1" vertex="1">
          <mxGeometry x="-302" y="-1002.3299999999999" width="86" height="84" as="geometry" />
        </mxCell>
        <mxCell id="VOM82OgJhgnwIrokfdzb-155" style="edgeStyle=orthogonalEdgeStyle;rounded=0;orthogonalLoop=1;jettySize=auto;html=1;exitX=1;exitY=0.5;exitDx=0;exitDy=0;exitPerimeter=0;entryX=1;entryY=0.5;entryDx=0;entryDy=0;entryPerimeter=0;" parent="1" source="VOM82OgJhgnwIrokfdzb-156" target="VOM82OgJhgnwIrokfdzb-165" edge="1">
          <mxGeometry relative="1" as="geometry" />
        </mxCell>
        <UserObject label="&lt;div style=&quot;font-size: 1px&quot;&gt;&lt;font style=&quot;font-size: 11.29px; direction: ltr; letter-spacing: 0px; line-height: 120%; opacity: 1;&quot;&gt;`&lt;i style=&quot;font-weight: bold;&quot;&gt;app_sub_state&lt;/i&gt;` = DUTY_1&lt;/font&gt;&lt;/div&gt;" Function="EN_DIO_Error_T DIO_port_write(EN_DIO_PORT_T portNumber, uint8_t byte, uint8_t mask)" tags="Flowchart" id="VOM82OgJhgnwIrokfdzb-156">
          <mxCell style="verticalAlign=middle;align=center;overflow=width;vsdxID=309;fillColor=#d5e8d4;shape=stencil(nZBLDoAgDERP0z3SIyjew0SURgSD+Lu9kMZoXLhwN9O+tukAlrNpJg1SzDH4QW/URgNYgZTkjA4UkwJUgGXng+6DX1zLfmoymdXo17xh5zmRJ6Q42BWCfc2oJfdAr+Yv+AP9Cb7OJ3H/2JG1HNGz/84klThPVCc=);strokeColor=#82b366;spacingTop=-1;spacingBottom=-1;spacingLeft=-1;spacingRight=-1;points=[[0,0.5,0],[1,0.5,0],[0.5,1,0],[0.5,0,0]];labelBackgroundColor=none;rounded=1;html=1;whiteSpace=wrap;fontFamily=Calibri;" parent="1" vertex="1">
            <mxGeometry x="-169" y="-974.83" width="157" height="29" as="geometry" />
          </mxCell>
        </UserObject>
        <mxCell id="VOM82OgJhgnwIrokfdzb-157" style="edgeStyle=orthogonalEdgeStyle;rounded=0;orthogonalLoop=1;jettySize=auto;html=1;" parent="1" source="VOM82OgJhgnwIrokfdzb-158" edge="1">
          <mxGeometry relative="1" as="geometry">
            <mxPoint x="7" y="-879" as="targetPoint" />
          </mxGeometry>
        </mxCell>
        <UserObject label="&lt;div style=&quot;font-size: 1px&quot;&gt;&lt;font style=&quot;font-size: 11.29px; direction: ltr; letter-spacing: 0px; line-height: 120%; opacity: 1;&quot;&gt;`&lt;i style=&quot;font-weight: bold;&quot;&gt;app_sub_state&lt;/i&gt;` += 1&lt;/font&gt;&lt;/div&gt;" Function="EN_DIO_Error_T DIO_port_write(EN_DIO_PORT_T portNumber, uint8_t byte, uint8_t mask)" tags="Flowchart" id="VOM82OgJhgnwIrokfdzb-158">
          <mxCell style="verticalAlign=middle;align=center;overflow=width;vsdxID=309;fillColor=#d5e8d4;shape=stencil(nZBLDoAgDERP0z3SIyjew0SURgSD+Lu9kMZoXLhwN9O+tukAlrNpJg1SzDH4QW/URgNYgZTkjA4UkwJUgGXng+6DX1zLfmoymdXo17xh5zmRJ6Q42BWCfc2oJfdAr+Yv+AP9Cb7OJ3H/2JG1HNGz/84klThPVCc=);strokeColor=#82b366;spacingTop=-1;spacingBottom=-1;spacingLeft=-1;spacingRight=-1;points=[[0,0.5,0],[1,0.5,0],[0.5,1,0],[0.5,0,0]];labelBackgroundColor=none;rounded=1;html=1;whiteSpace=wrap;fontFamily=Calibri;" parent="1" vertex="1">
            <mxGeometry x="-177" y="-893.3299999999999" width="117" height="29" as="geometry" />
          </mxCell>
        </UserObject>
        <mxCell id="VOM82OgJhgnwIrokfdzb-159" value="True" style="text;html=1;strokeColor=none;fillColor=none;align=center;verticalAlign=middle;whiteSpace=wrap;rounded=0;fontSize=12;fontFamily=Calibri;" parent="1" vertex="1">
          <mxGeometry x="-220" y="-984.68" width="39" height="16" as="geometry" />
        </mxCell>
        <mxCell id="VOM82OgJhgnwIrokfdzb-160" value="False" style="text;html=1;strokeColor=none;fillColor=none;align=center;verticalAlign=middle;whiteSpace=wrap;rounded=0;fontSize=12;fontFamily=Calibri;" parent="1" vertex="1">
          <mxGeometry x="-245" y="-896.3299999999999" width="39" height="16" as="geometry" />
        </mxCell>
        <mxCell id="VOM82OgJhgnwIrokfdzb-161" value="" style="rhombus;whiteSpace=wrap;html=1;" parent="1" vertex="1">
          <mxGeometry x="-422.5" y="-838.9999999999999" width="22" height="22" as="geometry" />
        </mxCell>
        <mxCell id="VOM82OgJhgnwIrokfdzb-164" value="" style="edgeStyle=orthogonalEdgeStyle;rounded=0;orthogonalLoop=1;jettySize=auto;html=1;" parent="1" source="VOM82OgJhgnwIrokfdzb-165" target="VOM82OgJhgnwIrokfdzb-161" edge="1">
          <mxGeometry relative="1" as="geometry" />
        </mxCell>
        <UserObject label="&lt;div style=&quot;font-size: 1px&quot;&gt;&lt;font style=&quot;font-size: 11.29px; direction: ltr; letter-spacing: 0px; line-height: 120%; opacity: 1;&quot;&gt;`&lt;i style=&quot;font-weight: bold;&quot;&gt;app_state&lt;/i&gt;` = SWITCHING&lt;/font&gt;&lt;/div&gt;" Function="EN_DIO_Error_T DIO_port_write(EN_DIO_PORT_T portNumber, uint8_t byte, uint8_t mask)" tags="Flowchart" id="VOM82OgJhgnwIrokfdzb-165">
          <mxCell style="verticalAlign=middle;align=center;overflow=width;vsdxID=309;fillColor=#d5e8d4;shape=stencil(nZBLDoAgDERP0z3SIyjew0SURgSD+Lu9kMZoXLhwN9O+tukAlrNpJg1SzDH4QW/URgNYgZTkjA4UkwJUgGXng+6DX1zLfmoymdXo17xh5zmRJ6Q42BWCfc2oJfdAr+Yv+AP9Cb7OJ3H/2JG1HNGz/84klThPVCc=);strokeColor=#82b366;spacingTop=-1;spacingBottom=-1;spacingLeft=-1;spacingRight=-1;points=[[0,0.5,0],[1,0.5,0],[0.5,1,0],[0.5,0,0]];labelBackgroundColor=none;rounded=1;html=1;whiteSpace=wrap;fontFamily=Calibri;" parent="1" vertex="1">
            <mxGeometry x="-294" y="-842.4999999999999" width="117" height="29" as="geometry" />
          </mxCell>
        </UserObject>
        <mxCell id="VOM82OgJhgnwIrokfdzb-166" style="edgeStyle=orthogonalEdgeStyle;rounded=0;orthogonalLoop=1;jettySize=auto;html=1;entryX=0.5;entryY=0;entryDx=0;entryDy=0;" parent="1" source="VOM82OgJhgnwIrokfdzb-167" target="VOM82OgJhgnwIrokfdzb-170" edge="1">
          <mxGeometry relative="1" as="geometry" />
        </mxCell>
        <UserObject label="&lt;div style=&quot;font-size: 1px&quot;&gt;&lt;font style=&quot;font-size: 11.29px; direction: ltr; letter-spacing: 0px; line-height: 120%; opacity: 1;&quot;&gt;Switch `&lt;b&gt;&lt;i&gt;app_state&lt;/i&gt;&lt;/b&gt;`&lt;br&gt;&lt;/font&gt;&lt;/div&gt;" Function="EN_DIO_Error_T DIO_port_write(EN_DIO_PORT_T portNumber, uint8_t byte, uint8_t mask)" tags="Flowchart" id="VOM82OgJhgnwIrokfdzb-167">
          <mxCell style="verticalAlign=middle;align=center;overflow=width;vsdxID=309;fillColor=#d5e8d4;shape=stencil(nZBLDoAgDERP0z3SIyjew0SURgSD+Lu9kMZoXLhwN9O+tukAlrNpJg1SzDH4QW/URgNYgZTkjA4UkwJUgGXng+6DX1zLfmoymdXo17xh5zmRJ6Q42BWCfc2oJfdAr+Yv+AP9Cb7OJ3H/2JG1HNGz/84klThPVCc=);strokeColor=#82b366;spacingTop=-1;spacingBottom=-1;spacingLeft=-1;spacingRight=-1;points=[[0,0.5,0],[1,0.5,0],[0.5,1,0],[0.5,0,0]];labelBackgroundColor=none;rounded=1;html=1;whiteSpace=wrap;fontFamily=Calibri;" parent="1" vertex="1">
            <mxGeometry x="-461.06000000000006" y="-786.8499999999999" width="101" height="38" as="geometry" />
          </mxCell>
        </UserObject>
        <mxCell id="VOM82OgJhgnwIrokfdzb-168" style="edgeStyle=none;curved=1;rounded=0;orthogonalLoop=1;jettySize=auto;html=1;entryX=0.5;entryY=0;entryDx=0;entryDy=0;fontSize=12;startSize=8;endSize=8;" parent="1" source="VOM82OgJhgnwIrokfdzb-170" target="VOM82OgJhgnwIrokfdzb-173" edge="1">
          <mxGeometry relative="1" as="geometry" />
        </mxCell>
        <mxCell id="VOM82OgJhgnwIrokfdzb-169" style="edgeStyle=orthogonalEdgeStyle;rounded=0;orthogonalLoop=1;jettySize=auto;html=1;exitX=1;exitY=0.5;exitDx=0;exitDy=0;entryX=1;entryY=0.5;entryDx=0;entryDy=0;" parent="1" source="VOM82OgJhgnwIrokfdzb-170" target="VOM82OgJhgnwIrokfdzb-185" edge="1">
          <mxGeometry relative="1" as="geometry">
            <Array as="points">
              <mxPoint x="-20" y="-679" />
              <mxPoint x="-20" y="-387" />
            </Array>
          </mxGeometry>
        </mxCell>
        <mxCell id="VOM82OgJhgnwIrokfdzb-170" value="case `&lt;b&gt;&lt;i&gt;RUNNING&lt;/i&gt;&lt;/b&gt;`" style="rhombus;whiteSpace=wrap;html=1;fontSize=12;fontFamily=Calibri;fillColor=#fff2cc;strokeColor=#d6b656;" parent="1" vertex="1">
          <mxGeometry x="-450.56000000000006" y="-718.8499999999999" width="80" height="80" as="geometry" />
        </mxCell>
        <mxCell id="VOM82OgJhgnwIrokfdzb-171" style="edgeStyle=none;curved=1;rounded=0;orthogonalLoop=1;jettySize=auto;html=1;entryX=0;entryY=0.5;entryDx=0;entryDy=0;fontSize=12;startSize=8;endSize=8;entryPerimeter=0;" parent="1" source="VOM82OgJhgnwIrokfdzb-173" target="VOM82OgJhgnwIrokfdzb-190" edge="1">
          <mxGeometry relative="1" as="geometry">
            <mxPoint x="-325.06" y="-559.35" as="targetPoint" />
          </mxGeometry>
        </mxCell>
        <mxCell id="VFEfzSZ_7FpAjkqAnIdG-9" value="" style="edgeStyle=orthogonalEdgeStyle;rounded=0;orthogonalLoop=1;jettySize=auto;html=1;" edge="1" parent="1" source="VOM82OgJhgnwIrokfdzb-173" target="VOM82OgJhgnwIrokfdzb-189">
          <mxGeometry relative="1" as="geometry" />
        </mxCell>
        <mxCell id="VOM82OgJhgnwIrokfdzb-173" value="case&lt;br&gt;&amp;nbsp;`&lt;b&gt;&lt;i&gt;SWITCHING&lt;/i&gt;&lt;/b&gt;`" style="rhombus;whiteSpace=wrap;html=1;fontSize=12;fontFamily=Calibri;fillColor=#fff2cc;strokeColor=#d6b656;" parent="1" vertex="1">
          <mxGeometry x="-457.05999999999995" y="-606.85" width="93" height="95" as="geometry" />
        </mxCell>
        <mxCell id="VOM82OgJhgnwIrokfdzb-174" value="True" style="text;html=1;strokeColor=none;fillColor=none;align=center;verticalAlign=middle;whiteSpace=wrap;rounded=0;fontSize=12;fontFamily=Calibri;" parent="1" vertex="1">
          <mxGeometry x="-369.68999999999994" y="-702.8499999999999" width="39" height="16" as="geometry" />
        </mxCell>
        <mxCell id="VOM82OgJhgnwIrokfdzb-175" value="True" style="text;html=1;strokeColor=none;fillColor=none;align=center;verticalAlign=middle;whiteSpace=wrap;rounded=0;fontSize=12;fontFamily=Calibri;" parent="1" vertex="1">
          <mxGeometry x="-369.68999999999994" y="-582.85" width="39" height="16" as="geometry" />
        </mxCell>
        <mxCell id="VOM82OgJhgnwIrokfdzb-176" value="False" style="text;html=1;strokeColor=none;fillColor=none;align=center;verticalAlign=middle;whiteSpace=wrap;rounded=0;fontSize=12;fontFamily=Calibri;" parent="1" vertex="1">
          <mxGeometry x="-407.82000000000005" y="-513.9999999999999" width="39" height="16" as="geometry" />
        </mxCell>
        <mxCell id="VOM82OgJhgnwIrokfdzb-177" value="False" style="text;html=1;strokeColor=none;fillColor=none;align=center;verticalAlign=middle;whiteSpace=wrap;rounded=0;fontSize=12;fontFamily=Calibri;" parent="1" vertex="1">
          <mxGeometry x="-408.68999999999994" y="-639.8499999999999" width="39" height="16" as="geometry" />
        </mxCell>
        <mxCell id="VOM82OgJhgnwIrokfdzb-184" style="edgeStyle=orthogonalEdgeStyle;rounded=0;orthogonalLoop=1;jettySize=auto;html=1;exitX=0;exitY=0.5;exitDx=0;exitDy=0;entryX=0;entryY=0.5;entryDx=0;entryDy=0;" parent="1" source="VOM82OgJhgnwIrokfdzb-185" target="VOM82OgJhgnwIrokfdzb-161" edge="1">
          <mxGeometry relative="1" as="geometry">
            <Array as="points">
              <mxPoint x="-490" y="-387" />
              <mxPoint x="-490" y="-828" />
            </Array>
          </mxGeometry>
        </mxCell>
        <mxCell id="VOM82OgJhgnwIrokfdzb-185" value="" style="rhombus;whiteSpace=wrap;html=1;" parent="1" vertex="1">
          <mxGeometry x="-421.5000000000001" y="-398" width="22" height="22" as="geometry" />
        </mxCell>
        <mxCell id="VOM82OgJhgnwIrokfdzb-186" value="&lt;i&gt;While(true)&lt;br&gt;loop back&lt;/i&gt;" style="text;html=1;strokeColor=none;fillColor=none;align=center;verticalAlign=middle;whiteSpace=wrap;rounded=0;fontSize=12;fontFamily=Calibri;" parent="1" vertex="1">
          <mxGeometry x="-440.5000000000001" y="-368" width="70" height="27" as="geometry" />
        </mxCell>
        <mxCell id="VOM82OgJhgnwIrokfdzb-187" style="edgeStyle=orthogonalEdgeStyle;rounded=0;orthogonalLoop=1;jettySize=auto;html=1;entryX=0.5;entryY=0;entryDx=0;entryDy=0;entryPerimeter=0;exitX=0.5;exitY=1;exitDx=0;exitDy=0;" parent="1" source="VOM82OgJhgnwIrokfdzb-161" target="VOM82OgJhgnwIrokfdzb-167" edge="1">
          <mxGeometry relative="1" as="geometry">
            <mxPoint x="-409.5" y="-780" as="sourcePoint" />
          </mxGeometry>
        </mxCell>
        <mxCell id="VOM82OgJhgnwIrokfdzb-188" style="edgeStyle=orthogonalEdgeStyle;rounded=0;orthogonalLoop=1;jettySize=auto;html=1;entryX=0.5;entryY=0;entryDx=0;entryDy=0;" parent="1" source="VOM82OgJhgnwIrokfdzb-189" target="VOM82OgJhgnwIrokfdzb-185" edge="1">
          <mxGeometry relative="1" as="geometry" />
        </mxCell>
        <UserObject label="&lt;div style=&quot;font-size: 1px&quot;&gt;&lt;font style=&quot;font-size: 11.29px; direction: ltr; letter-spacing: 0px; line-height: 120%; opacity: 1;&quot;&gt;`&lt;i style=&quot;font-weight: bold;&quot;&gt;app_state&lt;/i&gt;` = RUNNING&lt;/font&gt;&lt;/div&gt;" Function="EN_DIO_Error_T DIO_port_write(EN_DIO_PORT_T portNumber, uint8_t byte, uint8_t mask)" tags="Flowchart" id="VOM82OgJhgnwIrokfdzb-189">
          <mxCell style="verticalAlign=middle;align=center;overflow=width;vsdxID=309;fillColor=#d5e8d4;shape=stencil(nZBLDoAgDERP0z3SIyjew0SURgSD+Lu9kMZoXLhwN9O+tukAlrNpJg1SzDH4QW/URgNYgZTkjA4UkwJUgGXng+6DX1zLfmoymdXo17xh5zmRJ6Q42BWCfc2oJfdAr+Yv+AP9Cb7OJ3H/2JG1HNGz/84klThPVCc=);strokeColor=#82b366;spacingTop=-1;spacingBottom=-1;spacingLeft=-1;spacingRight=-1;points=[[0,0.5,0],[1,0.5,0],[0.5,1,0],[0.5,0,0]];labelBackgroundColor=none;rounded=1;html=1;whiteSpace=wrap;fontFamily=Calibri;" parent="1" vertex="1">
            <mxGeometry x="-469" y="-469" width="117" height="29" as="geometry" />
          </mxCell>
        </UserObject>
        <mxCell id="VFEfzSZ_7FpAjkqAnIdG-8" value="" style="edgeStyle=orthogonalEdgeStyle;rounded=0;orthogonalLoop=1;jettySize=auto;html=1;" edge="1" parent="1" source="VOM82OgJhgnwIrokfdzb-190" target="VOM82OgJhgnwIrokfdzb-195">
          <mxGeometry relative="1" as="geometry" />
        </mxCell>
        <UserObject label="&lt;div style=&quot;font-size: 1px&quot;&gt;&lt;font style=&quot;font-size: 11.29px; direction: ltr; letter-spacing: 0px; line-height: 120%; opacity: 1;&quot;&gt;Call&lt;/font&gt;&lt;/div&gt;&lt;div style=&quot;font-size: 1px&quot;&gt;&lt;font style=&quot;font-size: 11.29px; direction: ltr; letter-spacing: 0px; line-height: 120%; opacity: 1;&quot;&gt;app_switch_state()&lt;/font&gt;&lt;/div&gt;" Function="EN_DIO_Error_T DIO_port_write(EN_DIO_PORT_T portNumber, uint8_t byte, uint8_t mask)" tags="Flowchart" id="VOM82OgJhgnwIrokfdzb-190">
          <mxCell style="verticalAlign=middle;align=center;overflow=width;vsdxID=309;fillColor=#d5e8d4;shape=stencil(nZBLDoAgDERP0z3SIyjew0SURgSD+Lu9kMZoXLhwN9O+tukAlrNpJg1SzDH4QW/URgNYgZTkjA4UkwJUgGXng+6DX1zLfmoymdXo17xh5zmRJ6Q42BWCfc2oJfdAr+Yv+AP9Cb7OJ3H/2JG1HNGz/84klThPVCc=);strokeColor=#82b366;spacingTop=-1;spacingBottom=-1;spacingLeft=-1;spacingRight=-1;points=[[0,0.5,0],[1,0.5,0],[0.5,1,0],[0.5,0,0]];labelBackgroundColor=none;rounded=1;html=1;whiteSpace=wrap;fontFamily=Calibri;" parent="1" vertex="1">
            <mxGeometry x="-265.56" y="-577.85" width="120" height="37" as="geometry" />
          </mxCell>
        </UserObject>
        <mxCell id="VFEfzSZ_7FpAjkqAnIdG-11" style="edgeStyle=orthogonalEdgeStyle;rounded=0;orthogonalLoop=1;jettySize=auto;html=1;entryX=1;entryY=0.5;entryDx=0;entryDy=0;exitX=0.5;exitY=1;exitDx=0;exitDy=0;exitPerimeter=0;" edge="1" parent="1" source="VOM82OgJhgnwIrokfdzb-195" target="VOM82OgJhgnwIrokfdzb-185">
          <mxGeometry relative="1" as="geometry" />
        </mxCell>
        <UserObject label="&lt;div style=&quot;&quot;&gt;&lt;span style=&quot;border-color: var(--border-color); font-size: 11.29px;&quot;&gt;&lt;i style=&quot;border-color: var(--border-color);&quot;&gt;&lt;b&gt;&#39;app_state&#39; = &lt;/b&gt;RUNNING&lt;/i&gt;&lt;/span&gt;&lt;br&gt;&lt;/div&gt;" Function="EN_DIO_Error_T DIO_port_write(EN_DIO_PORT_T portNumber, uint8_t byte, uint8_t mask)" tags="Flowchart" id="VOM82OgJhgnwIrokfdzb-195">
          <mxCell style="verticalAlign=middle;align=center;overflow=width;vsdxID=309;fillColor=#d5e8d4;shape=stencil(nZBLDoAgDERP0z3SIyjew0SURgSD+Lu9kMZoXLhwN9O+tukAlrNpJg1SzDH4QW/URgNYgZTkjA4UkwJUgGXng+6DX1zLfmoymdXo17xh5zmRJ6Q42BWCfc2oJfdAr+Yv+AP9Cb7OJ3H/2JG1HNGz/84klThPVCc=);strokeColor=#82b366;spacingTop=-1;spacingBottom=-1;spacingLeft=-1;spacingRight=-1;points=[[0,0.5,0],[1,0.5,0],[0.5,1,0],[0.5,0,0]];labelBackgroundColor=none;rounded=1;html=1;whiteSpace=wrap;fontFamily=Calibri;" parent="1" vertex="1">
            <mxGeometry x="-265.56" y="-517.9999999999999" width="120" height="32" as="geometry" />
          </mxCell>
        </UserObject>
        <mxCell id="VOM82OgJhgnwIrokfdzb-221" style="edgeStyle=orthogonalEdgeStyle;rounded=0;orthogonalLoop=1;jettySize=auto;html=1;exitX=1;exitY=0.5;exitDx=0;exitDy=0;exitPerimeter=0;" parent="1" edge="1">
          <mxGeometry relative="1" as="geometry">
            <mxPoint x="-595.25" y="-784.6" as="targetPoint" />
            <mxPoint x="-737.5" y="-784.825" as="sourcePoint" />
            <Array as="points">
              <mxPoint x="-629" y="-785" />
              <mxPoint x="-629" y="-785" />
            </Array>
          </mxGeometry>
        </mxCell>
        <mxCell id="VFEfzSZ_7FpAjkqAnIdG-3" value="" style="edgeStyle=orthogonalEdgeStyle;rounded=0;orthogonalLoop=1;jettySize=auto;html=1;" edge="1" parent="1" source="VOM82OgJhgnwIrokfdzb-215" target="lFIIQ00Y4gTMDogE_Xks-2">
          <mxGeometry relative="1" as="geometry" />
        </mxCell>
        <UserObject label="&lt;div style=&quot;&quot;&gt;&lt;span style=&quot;font-size: 11.29px;&quot;&gt;Initialize PWM&lt;/span&gt;&lt;/div&gt;" Function="EN_DIO_Error_T DIO_toggle(uint8_t pinNumber, EN_DIO_PORT_T portNumber);  " tags="Flowchart" id="VOM82OgJhgnwIrokfdzb-215">
          <mxCell style="verticalAlign=middle;align=center;overflow=width;vsdxID=274;fillColor=#d5e8d4;shape=stencil(nZBLDoAgDERP0z3SIyjew0SURgSD+Lu9kMZoXLhwN9O+tukAlrNpJg1SzDH4QW/URgNYgZTkjA4UkwJUgGXng+6DX1zLfmoymdXo17xh5zmRJ6Q42BWCfc2oJfdAr+Yv+AP9Cb7OJ3H/2JG1HNGz/84klThPVCc=);strokeColor=#82b366;spacingTop=-1;spacingBottom=-1;spacingLeft=-1;spacingRight=-1;points=[[0,0.5,0],[1,0.5,0],[0.5,1,0],[0.5,0,0]];labelBackgroundColor=none;rounded=1;html=1;whiteSpace=wrap;fontFamily=Calibri;" parent="1" vertex="1">
            <mxGeometry x="-803.5" y="-802.3" width="98" height="30.65" as="geometry" />
          </mxCell>
        </UserObject>
        <mxCell id="VOM82OgJhgnwIrokfdzb-222" value="Failed" style="text;html=1;strokeColor=none;fillColor=none;align=center;verticalAlign=middle;whiteSpace=wrap;rounded=0;fontSize=12;fontFamily=Calibri;" parent="1" vertex="1">
          <mxGeometry x="-698.5" y="-808.9899999999999" width="39" height="16" as="geometry" />
        </mxCell>
        <mxCell id="9_zYeoBpbBDhdilek7MH-1" value="OK" style="text;html=1;strokeColor=none;fillColor=none;align=center;verticalAlign=middle;whiteSpace=wrap;rounded=0;fontSize=12;fontFamily=Calibri;" parent="1" vertex="1">
          <mxGeometry x="-798" y="-761" width="39" height="16" as="geometry" />
        </mxCell>
        <mxCell id="VFEfzSZ_7FpAjkqAnIdG-21" style="edgeStyle=orthogonalEdgeStyle;rounded=0;orthogonalLoop=1;jettySize=auto;html=1;entryX=0.5;entryY=0;entryDx=0;entryDy=0;entryPerimeter=0;" edge="1" parent="1" source="VFEfzSZ_7FpAjkqAnIdG-13" target="VFEfzSZ_7FpAjkqAnIdG-15">
          <mxGeometry relative="1" as="geometry" />
        </mxCell>
        <UserObject label="&lt;div style=&quot;font-size: 1px&quot;&gt;&lt;font style=&quot;font-size: 11.29px; direction: ltr; letter-spacing: 0px; line-height: 120%; opacity: 1;&quot;&gt;increment current state&lt;/font&gt;&lt;/div&gt;" Function="EN_DIO_Error_T DIO_port_write(EN_DIO_PORT_T portNumber, uint8_t byte, uint8_t mask)" tags="Flowchart" id="VFEfzSZ_7FpAjkqAnIdG-13">
          <mxCell style="verticalAlign=middle;align=center;overflow=width;vsdxID=309;fillColor=#d5e8d4;shape=stencil(nZBLDoAgDERP0z3SIyjew0SURgSD+Lu9kMZoXLhwN9O+tukAlrNpJg1SzDH4QW/URgNYgZTkjA4UkwJUgGXng+6DX1zLfmoymdXo17xh5zmRJ6Q42BWCfc2oJfdAr+Yv+AP9Cb7OJ3H/2JG1HNGz/84klThPVCc=);strokeColor=#82b366;spacingTop=-1;spacingBottom=-1;spacingLeft=-1;spacingRight=-1;points=[[0,0.5,0],[1,0.5,0],[0.5,1,0],[0.5,0,0]];labelBackgroundColor=none;rounded=1;html=1;whiteSpace=wrap;fontFamily=Calibri;" vertex="1" parent="1">
            <mxGeometry x="206.88" y="-979" width="120.12" height="27.3" as="geometry" />
          </mxCell>
        </UserObject>
        <mxCell id="VFEfzSZ_7FpAjkqAnIdG-22" style="edgeStyle=orthogonalEdgeStyle;rounded=0;orthogonalLoop=1;jettySize=auto;html=1;entryX=0.5;entryY=0;entryDx=0;entryDy=0;entryPerimeter=0;" edge="1" parent="1" source="VFEfzSZ_7FpAjkqAnIdG-15" target="VFEfzSZ_7FpAjkqAnIdG-16">
          <mxGeometry relative="1" as="geometry" />
        </mxCell>
        <UserObject label="&lt;div style=&quot;font-size: 1px&quot;&gt;&lt;font style=&quot;font-size: 11.29px; direction: ltr; letter-spacing: 0px; line-height: 120%; opacity: 1;&quot;&gt;call pwm_adjust_signal()&lt;/font&gt;&lt;/div&gt;" Function="EN_DIO_Error_T DIO_port_write(EN_DIO_PORT_T portNumber, uint8_t byte, uint8_t mask)" tags="Flowchart" id="VFEfzSZ_7FpAjkqAnIdG-15">
          <mxCell style="verticalAlign=middle;align=center;overflow=width;vsdxID=309;fillColor=#d5e8d4;shape=stencil(nZBLDoAgDERP0z3SIyjew0SURgSD+Lu9kMZoXLhwN9O+tukAlrNpJg1SzDH4QW/URgNYgZTkjA4UkwJUgGXng+6DX1zLfmoymdXo17xh5zmRJ6Q42BWCfc2oJfdAr+Yv+AP9Cb7OJ3H/2JG1HNGz/84klThPVCc=);strokeColor=#82b366;spacingTop=-1;spacingBottom=-1;spacingLeft=-1;spacingRight=-1;points=[[0,0.5,0],[1,0.5,0],[0.5,1,0],[0.5,0,0]];labelBackgroundColor=none;rounded=1;html=1;whiteSpace=wrap;fontFamily=Calibri;" vertex="1" parent="1">
            <mxGeometry x="216.44" y="-925" width="101" height="27.3" as="geometry" />
          </mxCell>
        </UserObject>
        <mxCell id="VFEfzSZ_7FpAjkqAnIdG-23" style="edgeStyle=orthogonalEdgeStyle;rounded=0;orthogonalLoop=1;jettySize=auto;html=1;entryX=0.5;entryY=0;entryDx=0;entryDy=0;entryPerimeter=0;" edge="1" parent="1" source="VFEfzSZ_7FpAjkqAnIdG-16" target="VFEfzSZ_7FpAjkqAnIdG-17">
          <mxGeometry relative="1" as="geometry" />
        </mxCell>
        <UserObject label="&lt;div style=&quot;font-size: 1px&quot;&gt;&lt;font style=&quot;font-size: 11.29px; direction: ltr; letter-spacing: 0px; line-height: 120%; opacity: 1;&quot;&gt;call pwm_start()&lt;/font&gt;&lt;/div&gt;" Function="EN_DIO_Error_T DIO_port_write(EN_DIO_PORT_T portNumber, uint8_t byte, uint8_t mask)" tags="Flowchart" id="VFEfzSZ_7FpAjkqAnIdG-16">
          <mxCell style="verticalAlign=middle;align=center;overflow=width;vsdxID=309;fillColor=#d5e8d4;shape=stencil(nZBLDoAgDERP0z3SIyjew0SURgSD+Lu9kMZoXLhwN9O+tukAlrNpJg1SzDH4QW/URgNYgZTkjA4UkwJUgGXng+6DX1zLfmoymdXo17xh5zmRJ6Q42BWCfc2oJfdAr+Yv+AP9Cb7OJ3H/2JG1HNGz/84klThPVCc=);strokeColor=#82b366;spacingTop=-1;spacingBottom=-1;spacingLeft=-1;spacingRight=-1;points=[[0,0.5,0],[1,0.5,0],[0.5,1,0],[0.5,0,0]];labelBackgroundColor=none;rounded=1;html=1;whiteSpace=wrap;fontFamily=Calibri;" vertex="1" parent="1">
            <mxGeometry x="216.44" y="-872" width="101" height="27.3" as="geometry" />
          </mxCell>
        </UserObject>
        <UserObject label="&lt;div style=&quot;font-size: 1px&quot;&gt;&lt;font style=&quot;font-size: 11.29px; direction: ltr; letter-spacing: 0px; line-height: 120%; opacity: 1;&quot;&gt;End&lt;br&gt;&lt;/font&gt;&lt;/div&gt;" Function="EN_DIO_Error_T DIO_write(uint8_t pinNumber, EN_DIO_PORT_T portNumber, uint8_t value); " tags="Flowchart" id="VFEfzSZ_7FpAjkqAnIdG-17">
          <mxCell style="verticalAlign=middle;align=center;overflow=width;vsdxID=152;fillColor=#dae8fc;shape=stencil(tVLREoIgEPwaHnEQxsl3s/9gEpSJwDko7e+DsEkze2l627vdu5uFRaxyHe8FosR5sCcxqMZ3iO0Rpcp0ApQPCLEasUpaEC3Yi2lS3fOojOhsr3HDmObyMtsVcYqS29Qh5FEfklwrM5OXeUa/yjkcAwfr7TDpiyTfXvjkMR+Vw2A998qaBac5tAKHU1hq3i4oNwjRr9ofvayt/+Rk+yX/4iWA159KpXWKxJx/z0Bopfyw+g4=);strokeColor=#6c8ebf;spacingTop=-1;spacingBottom=-1;spacingLeft=-1;spacingRight=-1;points=[[0.5,1,0],[0.5,0,0],[0,0.5,0],[1,0.5,0]];labelBackgroundColor=none;rounded=1;html=1;whiteSpace=wrap;fontFamily=Calibri;" vertex="1" parent="1">
            <mxGeometry x="223.56" y="-821.85" width="86.75" height="35" as="geometry" />
          </mxCell>
        </UserObject>
      </root>
    </mxGraphModel>
  </diagram>
</mxfile>
